<svg id="svg" version="1.1" xmlns="http://www.w3.org/2000/svg" xmlns:xlink="http://www.w3.org/1999/xlink" width="400" height="400" viewBox="0, 0, 400,400"><g id="svgg"><path id="path0" d="M201.563 120.259 L 201.563 162.790 204.004 163.059 C 212.611 164.009,220.675 167.902,226.936 174.129 C 229.785 176.963,229.871 177.014,230.842 176.448 C 231.389 176.130,247.920 166.596,267.578 155.261 C 287.236 143.927,303.384 134.601,303.462 134.536 C 303.978 134.105,294.906 122.344,289.929 116.992 C 269.107 94.598,238.835 80.066,209.375 78.323 C 207.334 78.202,204.741 78.019,203.613 77.916 L 201.563 77.728 201.563 120.259 M188.672 78.390 C 151.438 82.190,119.329 101.141,98.250 131.759 C 96.800 133.865,95.678 135.651,95.756 135.728 C 95.834 135.805,112.384 145.384,132.534 157.016 L 169.170 178.164 172.573 174.686 C 178.610 168.517,188.675 163.281,194.499 163.281 L 195.313 163.281 195.313 120.703 L 195.313 78.125 192.676 78.188 C 191.226 78.222,189.424 78.313,188.672 78.390 M272.065 160.015 C 252.947 171.055,236.380 180.615,235.251 181.260 L 233.197 182.432 234.368 184.752 C 238.921 193.770,239.035 207.019,234.643 216.524 L 233.307 219.417 269.956 240.568 C 290.113 252.201,306.685 261.719,306.783 261.719 C 307.080 261.719,309.771 256.660,311.563 252.734 L 313.257 249.023 313.367 257.348 L 313.477 265.673 318.359 268.509 L 323.242 271.346 323.016 230.693 C 322.776 187.731,322.812 188.620,320.890 178.146 C 318.681 166.116,312.758 149.696,307.519 141.082 L 306.826 139.942 272.065 160.015 M89.717 146.423 C 72.726 181.713,72.731 220.688,89.729 255.371 C 91.124 258.218,92.315 260.547,92.375 260.547 C 92.460 260.547,165.563 218.436,165.898 218.194 C 165.941 218.163,165.380 216.658,164.651 214.850 C 161.072 205.975,161.343 193.174,165.273 185.472 C 166.281 183.495,170.649 186.309,132.031 164.057 C 113.662 153.472,97.205 143.974,95.459 142.950 L 92.286 141.088 89.717 146.423 M133.330 244.313 C 113.541 255.737,96.970 265.337,96.506 265.647 C 95.672 266.205,95.694 266.257,98.703 270.658 C 119.635 301.278,154.060 320.894,191.699 323.647 L 195.313 323.911 195.313 281.319 L 195.313 238.727 193.066 238.284 C 184.306 236.555,177.399 232.542,171.081 225.513 L 169.311 223.543 133.330 244.313 M227.102 227.429 C 221.268 233.363,214.066 237.135,206.360 238.292 C 204.688 238.543,202.925 238.822,202.441 238.913 L 201.563 239.077 201.563 281.513 L 201.563 323.948 206.738 323.687 C 243.834 321.813,279.515 302.040,300.583 271.680 C 302.074 269.531,303.436 267.713,303.610 267.640 C 303.783 267.567,288.232 258.452,269.052 247.385 C 249.872 236.318,233.192 226.686,231.985 225.979 L 229.791 224.694 227.102 227.429 M313.281 287.271 C 313.281 295.131,313.360 301.563,313.457 301.563 C 313.669 301.563,318.252 296.078,320.924 292.627 L 322.852 290.136 323.047 284.424 L 323.242 278.711 320.898 277.320 C 319.609 276.554,317.368 275.265,315.918 274.454 L 313.281 272.980 313.281 287.271 M321.487 304.354 C 320.736 305.290,318.583 307.671,316.702 309.647 L 313.281 313.240 313.281 346.085 C 313.281 381.665,313.232 380.823,315.382 382.231 C 317.868 383.860,321.319 382.978,322.561 380.397 C 322.946 379.596,323.029 371.150,322.951 341.016 L 322.852 302.654 321.487 304.354 " stroke="none" fill="#f37404" fill-rule="evenodd"></path><path id="path1" d="M189.063 41.651 C 103.482 49.273,40.617 116.569,40.593 200.586 C 40.555 335.807,198.275 409.829,302.219 323.374 C 390.356 250.067,373.944 109.638,271.213 58.067 C 247.099 45.962,214.285 39.405,189.063 41.651 M195.313 106.250 L 195.313 163.281 194.499 163.281 C 188.675 163.281,178.610 168.517,172.574 174.685 L 169.172 178.162 120.621 150.153 C 93.918 134.748,71.765 121.937,71.392 121.684 C 70.780 121.268,71.075 120.693,74.410 115.787 C 97.708 81.520,133.377 58.470,174.023 51.416 C 180.372 50.315,188.209 49.446,193.262 49.284 L 195.313 49.219 195.313 106.250 M217.851 50.197 C 258.150 55.194,293.847 75.126,318.936 106.641 C 321.708 110.122,328.623 119.966,328.415 120.134 C 328.363 120.177,306.611 132.734,280.078 148.041 C 253.545 163.347,231.389 176.130,230.842 176.448 C 229.871 177.014,229.785 176.962,226.936 174.129 C 220.675 167.902,212.611 164.009,204.004 163.059 L 201.563 162.790 201.563 105.944 L 201.563 49.099 207.401 49.362 C 210.613 49.507,215.315 49.883,217.851 50.197 M334.976 131.512 C 354.994 170.887,357.148 216.032,340.969 257.113 C 339.307 261.333,333.283 273.972,332.102 275.717 C 331.831 276.117,320.339 269.652,282.528 247.826 L 233.308 219.414 234.644 216.523 C 239.035 207.019,238.920 193.770,234.368 184.752 L 233.197 182.432 235.251 181.261 C 236.380 180.617,258.398 167.885,284.180 152.967 C 309.961 138.050,331.304 125.874,331.608 125.911 C 331.913 125.947,333.428 128.468,334.976 131.512 M116.907 155.315 C 172.812 187.560,166.284 183.490,165.273 185.472 C 161.343 193.174,161.072 205.975,164.651 214.850 C 165.380 216.658,165.941 218.163,165.898 218.194 C 165.240 218.669,67.724 274.799,67.582 274.785 C 67.473 274.774,65.943 271.909,64.183 268.417 C 45.055 230.470,43.104 185.221,58.865 145.117 C 61.923 137.336,67.150 126.855,67.840 127.120 C 68.139 127.235,90.219 139.923,116.907 155.315 M174.534 229.060 C 179.300 233.529,186.083 236.905,193.066 238.284 L 195.313 238.727 195.313 295.679 L 195.313 352.630 192.480 352.470 C 143.020 349.681,98.400 323.816,72.149 282.717 L 70.715 280.472 73.736 278.718 C 75.398 277.753,97.583 264.944,123.035 250.254 L 169.313 223.544 171.082 225.513 C 172.055 226.596,173.609 228.192,174.534 229.060 M279.688 253.522 C 306.221 268.819,328.054 281.449,328.206 281.588 C 328.773 282.108,320.622 293.362,314.659 300.293 C 287.725 331.593,246.508 351.414,206.250 352.426 L 201.758 352.539 201.659 295.809 L 201.560 239.078 202.440 238.913 C 202.924 238.823,204.688 238.543,206.360 238.292 C 214.072 237.134,221.267 233.364,227.113 227.418 C 229.603 224.886,229.875 224.713,230.629 225.191 C 231.078 225.476,253.154 238.225,279.688 253.522 " stroke="none" fill="#050505" fill-rule="evenodd"></path><path id="path2" d="M0.000 200.000 L 0.000 400.000 200.000 400.000 L 400.000 400.000 400.000 200.000 L 400.000 0.000 200.000 0.000 L 0.000 0.000 0.000 200.000 M219.734 42.540 C 261.505 48.179,297.248 67.940,323.576 99.950 C 370.353 156.822,371.509 240.575,326.313 298.432 L 323.242 302.364 323.047 341.448 L 322.852 380.533 321.585 381.665 C 319.273 383.730,316.046 383.490,314.293 381.124 C 313.484 380.031,313.475 379.737,313.281 346.770 L 313.086 313.520 308.789 317.560 C 235.266 386.695,115.371 369.864,63.224 283.088 C 1.988 181.189,69.681 51.109,188.867 41.650 C 194.426 41.209,214.068 41.775,219.734 42.540 M189.844 49.475 C 189.092 49.548,186.455 49.799,183.984 50.034 C 148.553 53.403,113.150 71.164,88.577 97.901 C 79.961 107.276,70.157 120.844,71.391 121.684 C 72.396 122.369,95.302 135.547,95.487 135.547 C 95.573 135.547,96.958 133.646,98.565 131.324 C 119.964 100.374,154.651 80.494,191.150 78.261 L 195.313 78.006 195.313 63.613 L 195.313 49.219 193.262 49.281 C 192.134 49.316,190.596 49.403,189.844 49.475 M201.563 63.392 L 201.563 77.687 203.223 77.888 C 204.136 77.998,206.729 78.188,208.984 78.309 C 244.557 80.220,279.803 100.281,300.998 130.680 C 303.386 134.105,303.634 134.340,304.423 133.929 C 305.201 133.523,328.195 120.297,328.416 120.128 C 328.469 120.088,327.063 117.930,325.291 115.332 C 298.489 76.031,254.593 51.520,207.129 49.352 L 201.563 49.097 201.563 63.392 M319.336 132.672 C 312.891 136.424,307.484 139.627,307.320 139.790 C 307.157 139.953,307.981 141.921,309.152 144.164 C 315.720 156.750,319.693 169.467,322.147 185.764 C 322.701 189.441,322.822 195.719,323.016 230.650 L 323.242 271.261 327.344 273.704 C 329.600 275.048,331.567 276.153,331.716 276.160 C 332.703 276.204,341.230 257.167,344.134 248.438 C 354.726 216.594,353.990 179.348,342.142 147.732 C 338.755 138.691,332.472 125.743,331.508 125.816 C 331.259 125.834,325.781 128.920,319.336 132.672 M64.355 132.894 C 53.195 155.352,48.633 175.049,48.633 200.781 C 48.633 214.413,48.806 216.727,50.617 227.344 C 53.167 242.296,62.499 268.764,67.229 274.464 C 67.521 274.816,90.541 262.105,92.138 260.709 C 92.218 260.639,91.138 258.245,89.738 255.388 C 72.582 220.386,72.781 180.140,90.282 145.222 C 91.330 143.131,92.188 141.344,92.188 141.251 C 92.188 141.070,68.782 127.481,67.865 127.129 C 67.483 126.983,66.451 128.678,64.355 132.894 M312.884 249.707 C 312.881 249.976,311.562 252.817,309.953 256.021 C 308.345 259.225,307.073 261.889,307.128 261.942 C 307.182 261.994,308.589 262.841,310.254 263.824 L 313.281 265.612 313.281 257.415 C 313.281 252.907,313.193 249.219,313.086 249.219 C 312.979 249.219,312.888 249.438,312.884 249.707 M83.203 273.218 C 76.436 277.141,70.941 280.510,70.993 280.703 C 71.442 282.375,80.130 294.237,85.341 300.293 C 111.170 330.309,150.695 350.094,188.940 352.153 C 191.263 352.278,193.647 352.455,194.238 352.547 L 195.313 352.715 195.313 338.313 L 195.313 323.911 191.699 323.647 C 154.576 320.932,120.405 301.728,99.553 271.861 C 97.973 269.597,96.416 267.372,96.094 266.915 C 95.516 266.095,95.339 266.182,83.203 273.218 M300.781 271.365 C 280.426 301.489,243.902 321.810,206.738 323.687 L 201.563 323.948 201.563 338.123 C 201.563 346.972,201.707 352.387,201.946 352.535 C 202.465 352.855,213.934 352.083,219.727 351.337 C 252.692 347.090,282.607 332.399,306.742 308.603 L 313.289 302.148 313.282 287.500 L 313.275 272.852 308.637 270.215 C 302.982 267.000,303.813 266.878,300.781 271.365 M323.047 284.180 C 323.047 287.080,323.104 289.453,323.173 289.453 C 323.243 289.453,324.156 288.179,325.202 286.621 C 326.249 285.063,327.427 283.317,327.820 282.739 L 328.534 281.689 326.046 280.298 C 324.677 279.532,323.443 278.906,323.302 278.906 C 323.162 278.906,323.047 281.279,323.047 284.180 " stroke="none" fill="#d3d3d3" fill-rule="evenodd"></path></g></svg>